<mxfile host="www.draw.io" modified="2020-08-18T05:06:33.537Z" agent="5.0 (Windows NT 10.0; Win64; x64) AppleWebKit/537.36 (KHTML, like Gecko) Chrome/84.0.4147.125 Safari/537.36" etag="Bi7IpRR3J1PKVLn2PZrR" version="13.6.2" type="github">
  <diagram id="Wx8GK405Yj2OqTjKrMqW" name="Page-1">
    <mxGraphModel dx="1408" dy="819" grid="1" gridSize="10" guides="1" tooltips="1" connect="1" arrows="1" fold="1" page="1" pageScale="1" pageWidth="827" pageHeight="1169" math="1" shadow="0">
      <root>
        <mxCell id="0" />
        <mxCell id="1" parent="0" />
        <mxCell id="rtLLGx0ZlrT6Qw1LvZ3F-5" style="edgeStyle=orthogonalEdgeStyle;rounded=0;orthogonalLoop=1;jettySize=auto;html=1;exitX=1;exitY=0.5;exitDx=0;exitDy=0;entryX=0;entryY=0.5;entryDx=0;entryDy=0;" parent="1" source="rtLLGx0ZlrT6Qw1LvZ3F-1" edge="1">
          <mxGeometry relative="1" as="geometry">
            <mxPoint x="200.33333333333348" y="300.33333333333337" as="targetPoint" />
          </mxGeometry>
        </mxCell>
        <mxCell id="rtLLGx0ZlrT6Qw1LvZ3F-129" style="edgeStyle=orthogonalEdgeStyle;rounded=0;orthogonalLoop=1;jettySize=auto;html=1;exitX=0.5;exitY=1;exitDx=0;exitDy=0;entryX=0.5;entryY=1;entryDx=0;entryDy=0;startArrow=none;startFill=0;strokeColor=#000000;" parent="1" source="rtLLGx0ZlrT6Qw1LvZ3F-1" target="rtLLGx0ZlrT6Qw1LvZ3F-115" edge="1">
          <mxGeometry relative="1" as="geometry" />
        </mxCell>
        <mxCell id="rtLLGx0ZlrT6Qw1LvZ3F-1" value="&lt;font style=&quot;font-size: 18px&quot;&gt;SEEG Segment&lt;/font&gt;" style="rounded=0;whiteSpace=wrap;html=1;fillColor=#e1d5e7;strokeColor=#9673a6;" parent="1" vertex="1">
          <mxGeometry x="60" y="270" width="90" height="60" as="geometry" />
        </mxCell>
        <mxCell id="rtLLGx0ZlrT6Qw1LvZ3F-31" value="" style="group;fillColor=#FFFFFF;strokeColor=none;" parent="1" vertex="1" connectable="0">
          <mxGeometry x="200" y="200" width="60" height="200" as="geometry" />
        </mxCell>
        <mxCell id="rtLLGx0ZlrT6Qw1LvZ3F-27" value="" style="shape=cube;whiteSpace=wrap;html=1;boundedLbl=1;backgroundOutline=1;darkOpacity=0.05;darkOpacity2=0.1;fillColor=#FFFFCC;gradientColor=none;" parent="rtLLGx0ZlrT6Qw1LvZ3F-31" vertex="1">
          <mxGeometry width="40" height="200" as="geometry" />
        </mxCell>
        <mxCell id="rtLLGx0ZlrT6Qw1LvZ3F-30" value="&lt;font face=&quot;Verdana&quot; style=&quot;font-size: 15px&quot;&gt;CONV&lt;/font&gt;" style="text;html=1;align=center;verticalAlign=middle;resizable=0;points=[];autosize=1;rotation=90;" parent="rtLLGx0ZlrT6Qw1LvZ3F-31" vertex="1">
          <mxGeometry y="93.33333333333333" width="60" height="20" as="geometry" />
        </mxCell>
        <mxCell id="rtLLGx0ZlrT6Qw1LvZ3F-32" value="" style="group;fillColor=#FFFFFF;strokeColor=none;" parent="1" vertex="1" connectable="0">
          <mxGeometry x="270" y="220" width="60" height="150" as="geometry" />
        </mxCell>
        <mxCell id="rtLLGx0ZlrT6Qw1LvZ3F-33" value="" style="shape=cube;whiteSpace=wrap;html=1;boundedLbl=1;backgroundOutline=1;darkOpacity=0.05;darkOpacity2=0.1;fillColor=#CCFFCC;strokeColor=#ae4132;" parent="rtLLGx0ZlrT6Qw1LvZ3F-32" vertex="1">
          <mxGeometry width="40" height="150" as="geometry" />
        </mxCell>
        <mxCell id="rtLLGx0ZlrT6Qw1LvZ3F-34" value="&lt;font face=&quot;Verdana&quot; style=&quot;font-size: 15px&quot;&gt;CONV&lt;/font&gt;" style="text;html=1;align=center;verticalAlign=middle;resizable=0;points=[];autosize=1;rotation=90;" parent="rtLLGx0ZlrT6Qw1LvZ3F-32" vertex="1">
          <mxGeometry y="70" width="60" height="20" as="geometry" />
        </mxCell>
        <mxCell id="rtLLGx0ZlrT6Qw1LvZ3F-35" value="" style="group;gradientColor=none;fillColor=#FFFFFF;strokeColor=none;" parent="1" vertex="1" connectable="0">
          <mxGeometry x="340" y="250" width="60" height="100" as="geometry" />
        </mxCell>
        <mxCell id="rtLLGx0ZlrT6Qw1LvZ3F-36" value="" style="shape=cube;whiteSpace=wrap;html=1;boundedLbl=1;backgroundOutline=1;darkOpacity=0.05;darkOpacity2=0.1;gradientColor=#ffd966;fillColor=#fff2cc;strokeColor=#d6b656;" parent="rtLLGx0ZlrT6Qw1LvZ3F-35" vertex="1">
          <mxGeometry width="40" height="100.00000000000001" as="geometry" />
        </mxCell>
        <mxCell id="rtLLGx0ZlrT6Qw1LvZ3F-37" value="&lt;font face=&quot;Verdana&quot; style=&quot;font-size: 15px&quot;&gt;CONV&lt;/font&gt;" style="text;html=1;align=center;verticalAlign=middle;resizable=0;points=[];autosize=1;rotation=90;" parent="rtLLGx0ZlrT6Qw1LvZ3F-35" vertex="1">
          <mxGeometry y="46.666666666666664" width="60" height="20" as="geometry" />
        </mxCell>
        <mxCell id="rtLLGx0ZlrT6Qw1LvZ3F-67" style="edgeStyle=none;rounded=0;orthogonalLoop=1;jettySize=auto;html=1;entryX=0.05;entryY=0.553;entryDx=0;entryDy=0;entryPerimeter=0;" parent="1" source="rtLLGx0ZlrT6Qw1LvZ3F-30" target="rtLLGx0ZlrT6Qw1LvZ3F-33" edge="1">
          <mxGeometry relative="1" as="geometry" />
        </mxCell>
        <mxCell id="rtLLGx0ZlrT6Qw1LvZ3F-98" value="" style="group" parent="1" vertex="1" connectable="0">
          <mxGeometry x="410" y="260" width="90" height="80" as="geometry" />
        </mxCell>
        <mxCell id="rtLLGx0ZlrT6Qw1LvZ3F-91" value="" style="shape=cube;whiteSpace=wrap;html=1;boundedLbl=1;backgroundOutline=1;darkOpacity=0.05;darkOpacity2=0.1;fillColor=#fff2cc;strokeColor=#d6b656;" parent="rtLLGx0ZlrT6Qw1LvZ3F-98" vertex="1">
          <mxGeometry width="30" height="80" as="geometry" />
        </mxCell>
        <mxCell id="rtLLGx0ZlrT6Qw1LvZ3F-92" value="" style="shape=cube;whiteSpace=wrap;html=1;boundedLbl=1;backgroundOutline=1;darkOpacity=0.05;darkOpacity2=0.1;fillColor=#f8cecc;strokeColor=#b85450;" parent="rtLLGx0ZlrT6Qw1LvZ3F-98" vertex="1">
          <mxGeometry x="30" width="30" height="80" as="geometry" />
        </mxCell>
        <mxCell id="rtLLGx0ZlrT6Qw1LvZ3F-93" value="" style="shape=cube;whiteSpace=wrap;html=1;boundedLbl=1;backgroundOutline=1;darkOpacity=0.05;darkOpacity2=0.1;fillColor=#e1d5e7;strokeColor=#9673a6;" parent="rtLLGx0ZlrT6Qw1LvZ3F-98" vertex="1">
          <mxGeometry x="60" width="30" height="80" as="geometry" />
        </mxCell>
        <mxCell id="rtLLGx0ZlrT6Qw1LvZ3F-43" style="edgeStyle=none;rounded=0;orthogonalLoop=1;jettySize=auto;html=1;exitX=0;exitY=0;exitDx=25;exitDy=100;exitPerimeter=0;entryX=0.5;entryY=0;entryDx=0;entryDy=0;dashed=1;strokeColor=none;" parent="1" edge="1">
          <mxGeometry relative="1" as="geometry">
            <mxPoint x="495" y="350" as="sourcePoint" />
            <mxPoint x="578.3333333333333" y="390" as="targetPoint" />
          </mxGeometry>
        </mxCell>
        <mxCell id="rtLLGx0ZlrT6Qw1LvZ3F-118" value="" style="group" parent="1" vertex="1" connectable="0">
          <mxGeometry x="620" y="180" width="30" height="240" as="geometry" />
        </mxCell>
        <mxCell id="rtLLGx0ZlrT6Qw1LvZ3F-108" value="" style="rounded=0;whiteSpace=wrap;html=1;" parent="rtLLGx0ZlrT6Qw1LvZ3F-118" vertex="1">
          <mxGeometry width="30" height="30" as="geometry" />
        </mxCell>
        <mxCell id="rtLLGx0ZlrT6Qw1LvZ3F-109" value="" style="rounded=0;whiteSpace=wrap;html=1;" parent="rtLLGx0ZlrT6Qw1LvZ3F-118" vertex="1">
          <mxGeometry y="150" width="30" height="30" as="geometry" />
        </mxCell>
        <mxCell id="rtLLGx0ZlrT6Qw1LvZ3F-110" value="" style="rounded=0;whiteSpace=wrap;html=1;" parent="rtLLGx0ZlrT6Qw1LvZ3F-118" vertex="1">
          <mxGeometry y="120" width="30" height="30" as="geometry" />
        </mxCell>
        <mxCell id="rtLLGx0ZlrT6Qw1LvZ3F-111" value="" style="rounded=0;whiteSpace=wrap;html=1;" parent="rtLLGx0ZlrT6Qw1LvZ3F-118" vertex="1">
          <mxGeometry y="90" width="30" height="30" as="geometry" />
        </mxCell>
        <mxCell id="rtLLGx0ZlrT6Qw1LvZ3F-112" value="" style="rounded=0;whiteSpace=wrap;html=1;" parent="rtLLGx0ZlrT6Qw1LvZ3F-118" vertex="1">
          <mxGeometry y="60" width="30" height="30" as="geometry" />
        </mxCell>
        <mxCell id="rtLLGx0ZlrT6Qw1LvZ3F-113" value="" style="rounded=0;whiteSpace=wrap;html=1;" parent="rtLLGx0ZlrT6Qw1LvZ3F-118" vertex="1">
          <mxGeometry y="30" width="30" height="30" as="geometry" />
        </mxCell>
        <mxCell id="rtLLGx0ZlrT6Qw1LvZ3F-115" value="" style="rounded=0;whiteSpace=wrap;html=1;" parent="rtLLGx0ZlrT6Qw1LvZ3F-118" vertex="1">
          <mxGeometry y="210" width="30" height="30" as="geometry" />
        </mxCell>
        <mxCell id="rtLLGx0ZlrT6Qw1LvZ3F-116" value="" style="rounded=0;whiteSpace=wrap;html=1;fillColor=#fff2cc;strokeColor=#d6b656;" parent="rtLLGx0ZlrT6Qw1LvZ3F-118" vertex="1">
          <mxGeometry y="180" width="30" height="30" as="geometry" />
        </mxCell>
        <mxCell id="rtLLGx0ZlrT6Qw1LvZ3F-117" style="edgeStyle=none;rounded=0;orthogonalLoop=1;jettySize=auto;html=1;exitX=0.5;exitY=1;exitDx=0;exitDy=0;startArrow=none;startFill=0;strokeColor=#000000;" parent="rtLLGx0ZlrT6Qw1LvZ3F-118" source="rtLLGx0ZlrT6Qw1LvZ3F-115" target="rtLLGx0ZlrT6Qw1LvZ3F-115" edge="1">
          <mxGeometry relative="1" as="geometry" />
        </mxCell>
        <mxCell id="rtLLGx0ZlrT6Qw1LvZ3F-120" value="" style="endArrow=classic;html=1;strokeColor=#000000;" parent="1" edge="1">
          <mxGeometry width="50" height="50" relative="1" as="geometry">
            <mxPoint x="380" y="303" as="sourcePoint" />
            <mxPoint x="420" y="303" as="targetPoint" />
          </mxGeometry>
        </mxCell>
        <mxCell id="rtLLGx0ZlrT6Qw1LvZ3F-122" value="" style="endArrow=classic;html=1;strokeColor=#000000;" parent="1" edge="1">
          <mxGeometry width="50" height="50" relative="1" as="geometry">
            <mxPoint x="310" y="305" as="sourcePoint" />
            <mxPoint x="350" y="305" as="targetPoint" />
          </mxGeometry>
        </mxCell>
        <mxCell id="rtLLGx0ZlrT6Qw1LvZ3F-128" value="" style="endArrow=classic;html=1;strokeColor=#000000;entryX=0;entryY=1;entryDx=0;entryDy=0;" parent="1" target="rtLLGx0ZlrT6Qw1LvZ3F-111" edge="1">
          <mxGeometry width="50" height="50" relative="1" as="geometry">
            <mxPoint x="500" y="299.58" as="sourcePoint" />
            <mxPoint x="600" y="299.58" as="targetPoint" />
          </mxGeometry>
        </mxCell>
        <mxCell id="rtLLGx0ZlrT6Qw1LvZ3F-130" style="edgeStyle=orthogonalEdgeStyle;rounded=0;orthogonalLoop=1;jettySize=auto;html=1;exitX=1;exitY=0;exitDx=0;exitDy=0;startArrow=none;startFill=0;strokeColor=#000000;" parent="1" source="rtLLGx0ZlrT6Qw1LvZ3F-110" edge="1">
          <mxGeometry relative="1" as="geometry">
            <mxPoint x="680.3333333333335" y="300.33333333333337" as="targetPoint" />
          </mxGeometry>
        </mxCell>
        <mxCell id="rtLLGx0ZlrT6Qw1LvZ3F-131" value="&lt;font style=&quot;font-size: 18px&quot;&gt;Localization&lt;/font&gt;" style="rounded=0;whiteSpace=wrap;html=1;fillColor=#fff2cc;strokeColor=#d6b656;" parent="1" vertex="1">
          <mxGeometry x="680" y="270" width="110" height="60" as="geometry" />
        </mxCell>
        <mxCell id="rtLLGx0ZlrT6Qw1LvZ3F-134" value="" style="endArrow=classic;html=1;strokeColor=#000000;exitX=0.5;exitY=1;exitDx=0;exitDy=0;entryX=0.5;entryY=0;entryDx=0;entryDy=0;edgeStyle=orthogonalEdgeStyle;" parent="1" source="rtLLGx0ZlrT6Qw1LvZ3F-131" target="rtLLGx0ZlrT6Qw1LvZ3F-135" edge="1">
          <mxGeometry width="50" height="50" relative="1" as="geometry">
            <mxPoint x="60" y="590" as="sourcePoint" />
            <mxPoint x="735" y="450" as="targetPoint" />
          </mxGeometry>
        </mxCell>
        <mxCell id="rtLLGx0ZlrT6Qw1LvZ3F-153" style="edgeStyle=orthogonalEdgeStyle;rounded=0;orthogonalLoop=1;jettySize=auto;html=1;exitX=0.5;exitY=1;exitDx=0;exitDy=0;entryX=1;entryY=0.5;entryDx=0;entryDy=0;startArrow=none;startFill=0;strokeColor=#000000;" parent="1" source="rtLLGx0ZlrT6Qw1LvZ3F-135" target="rtLLGx0ZlrT6Qw1LvZ3F-140" edge="1">
          <mxGeometry relative="1" as="geometry" />
        </mxCell>
        <mxCell id="rtLLGx0ZlrT6Qw1LvZ3F-135" value="&lt;font style=&quot;font-size: 18px&quot;&gt;Time&lt;/font&gt;" style="rounded=0;whiteSpace=wrap;html=1;fillColor=#ffff88;strokeColor=#36393d;" parent="1" vertex="1">
          <mxGeometry x="650" y="460" width="80" height="60" as="geometry" />
        </mxCell>
        <mxCell id="rtLLGx0ZlrT6Qw1LvZ3F-136" value="&lt;font style=&quot;font-size: 18px&quot;&gt;Channels&lt;/font&gt;" style="rounded=0;whiteSpace=wrap;html=1;fillColor=#ffcccc;strokeColor=#36393d;" parent="1" vertex="1">
          <mxGeometry x="730" y="460" width="80" height="60" as="geometry" />
        </mxCell>
        <mxCell id="rtLLGx0ZlrT6Qw1LvZ3F-137" value="" style="endArrow=classic;html=1;strokeColor=#000000;exitX=0.5;exitY=1;exitDx=0;exitDy=0;entryX=0.5;entryY=0;entryDx=0;entryDy=0;edgeStyle=orthogonalEdgeStyle;" parent="1" source="rtLLGx0ZlrT6Qw1LvZ3F-131" target="rtLLGx0ZlrT6Qw1LvZ3F-136" edge="1">
          <mxGeometry width="50" height="50" relative="1" as="geometry">
            <mxPoint x="470" y="610" as="sourcePoint" />
            <mxPoint x="520" y="560" as="targetPoint" />
          </mxGeometry>
        </mxCell>
        <mxCell id="rtLLGx0ZlrT6Qw1LvZ3F-158" style="edgeStyle=orthogonalEdgeStyle;rounded=0;orthogonalLoop=1;jettySize=auto;html=1;exitX=0.5;exitY=1;exitDx=0;exitDy=0;startArrow=none;startFill=0;strokeColor=#000000;" parent="1" source="rtLLGx0ZlrT6Qw1LvZ3F-140" target="rtLLGx0ZlrT6Qw1LvZ3F-157" edge="1">
          <mxGeometry relative="1" as="geometry" />
        </mxCell>
        <mxCell id="rtLLGx0ZlrT6Qw1LvZ3F-140" value="&lt;font style=&quot;font-size: 18px&quot;&gt;SEEG Signal Selection&lt;/font&gt;" style="rounded=0;whiteSpace=wrap;html=1;fillColor=#f5f5f5;strokeColor=#666666;fontColor=#333333;" parent="1" vertex="1">
          <mxGeometry x="330" y="460" width="155" height="60" as="geometry" />
        </mxCell>
        <mxCell id="rtLLGx0ZlrT6Qw1LvZ3F-155" value="" style="endArrow=none;html=1;strokeColor=#000000;entryX=0.5;entryY=1;entryDx=0;entryDy=0;edgeStyle=orthogonalEdgeStyle;" parent="1" target="rtLLGx0ZlrT6Qw1LvZ3F-136" edge="1">
          <mxGeometry width="50" height="50" relative="1" as="geometry">
            <mxPoint x="570" y="540" as="sourcePoint" />
            <mxPoint x="590" y="640" as="targetPoint" />
          </mxGeometry>
        </mxCell>
        <mxCell id="rtLLGx0ZlrT6Qw1LvZ3F-156" value="&lt;font style=&quot;font-size: 18px&quot;&gt;Feature Map&lt;/font&gt;" style="rounded=0;whiteSpace=wrap;html=1;fillColor=#FFFFFF;gradientColor=none;strokeColor=none;" parent="1" vertex="1">
          <mxGeometry x="395" y="220" width="120" height="30" as="geometry" />
        </mxCell>
        <mxCell id="BqNa_sSbRJecgwbqxOsx-3" style="edgeStyle=orthogonalEdgeStyle;rounded=0;orthogonalLoop=1;jettySize=auto;html=1;exitX=0.5;exitY=1;exitDx=0;exitDy=0;entryX=0.5;entryY=0;entryDx=0;entryDy=0;" parent="1" source="rtLLGx0ZlrT6Qw1LvZ3F-157" target="BqNa_sSbRJecgwbqxOsx-2" edge="1">
          <mxGeometry relative="1" as="geometry" />
        </mxCell>
        <mxCell id="rtLLGx0ZlrT6Qw1LvZ3F-157" value="&lt;font style=&quot;font-size: 18px&quot;&gt;SEEG Signal Alignment&lt;/font&gt;" style="rounded=0;whiteSpace=wrap;html=1;fillColor=#cdeb8b;strokeColor=#36393d;" parent="1" vertex="1">
          <mxGeometry x="347.5" y="554" width="120" height="60" as="geometry" />
        </mxCell>
        <mxCell id="rtLLGx0ZlrT6Qw1LvZ3F-185" value="" style="group;fillColor=#ffe6cc;strokeColor=#d79b00;" parent="1" vertex="1" connectable="0">
          <mxGeometry x="200" y="730" width="428" height="60" as="geometry" />
        </mxCell>
        <mxCell id="rtLLGx0ZlrT6Qw1LvZ3F-180" value="&lt;span style=&quot;font-size: 18px&quot;&gt;Cluster-1&lt;/span&gt;" style="rounded=0;whiteSpace=wrap;html=1;fillColor=#ffe6cc;strokeColor=#d79b00;" parent="rtLLGx0ZlrT6Qw1LvZ3F-185" vertex="1">
          <mxGeometry width="85.6" height="60" as="geometry" />
        </mxCell>
        <mxCell id="rtLLGx0ZlrT6Qw1LvZ3F-181" value="&lt;span style=&quot;font-size: 18px ; white-space: normal&quot;&gt;Cluster-2&lt;/span&gt;" style="rounded=0;whiteSpace=wrap;html=1;fillColor=#fff2cc;strokeColor=#d6b656;" parent="rtLLGx0ZlrT6Qw1LvZ3F-185" vertex="1">
          <mxGeometry x="85.6" width="85.6" height="60" as="geometry" />
        </mxCell>
        <mxCell id="rtLLGx0ZlrT6Qw1LvZ3F-182" value="&lt;span style=&quot;font-size: 18px&quot;&gt;Cluster-k&lt;/span&gt;" style="rounded=0;whiteSpace=wrap;html=1;fillColor=#d5e8d4;strokeColor=#82b366;" parent="rtLLGx0ZlrT6Qw1LvZ3F-185" vertex="1">
          <mxGeometry x="342.4" width="85.6" height="60" as="geometry" />
        </mxCell>
        <mxCell id="rtLLGx0ZlrT6Qw1LvZ3F-183" value="&lt;span style=&quot;font-size: 18px&quot;&gt;Cluster-3&lt;/span&gt;" style="rounded=0;whiteSpace=wrap;html=1;fillColor=#f8cecc;strokeColor=#b85450;" parent="rtLLGx0ZlrT6Qw1LvZ3F-185" vertex="1">
          <mxGeometry x="171.2" width="85.6" height="60" as="geometry" />
        </mxCell>
        <mxCell id="rtLLGx0ZlrT6Qw1LvZ3F-184" value="&lt;font style=&quot;font-size: 20px&quot;&gt;...&lt;/font&gt;" style="rounded=0;whiteSpace=wrap;html=1;fillColor=#dae8fc;strokeColor=#6c8ebf;" parent="rtLLGx0ZlrT6Qw1LvZ3F-185" vertex="1">
          <mxGeometry x="256.8" width="85.6" height="60" as="geometry" />
        </mxCell>
        <mxCell id="BqNa_sSbRJecgwbqxOsx-4" style="edgeStyle=orthogonalEdgeStyle;rounded=0;orthogonalLoop=1;jettySize=auto;html=1;exitX=0.5;exitY=1;exitDx=0;exitDy=0;entryX=0.5;entryY=0;entryDx=0;entryDy=0;" parent="1" source="BqNa_sSbRJecgwbqxOsx-2" target="rtLLGx0ZlrT6Qw1LvZ3F-180" edge="1">
          <mxGeometry relative="1" as="geometry">
            <Array as="points">
              <mxPoint x="408" y="710" />
              <mxPoint x="243" y="710" />
            </Array>
          </mxGeometry>
        </mxCell>
        <mxCell id="BqNa_sSbRJecgwbqxOsx-5" style="edgeStyle=orthogonalEdgeStyle;rounded=0;orthogonalLoop=1;jettySize=auto;html=1;exitX=0.5;exitY=1;exitDx=0;exitDy=0;entryX=0.5;entryY=0;entryDx=0;entryDy=0;" parent="1" source="BqNa_sSbRJecgwbqxOsx-2" target="rtLLGx0ZlrT6Qw1LvZ3F-182" edge="1">
          <mxGeometry relative="1" as="geometry">
            <Array as="points">
              <mxPoint x="408" y="710" />
              <mxPoint x="585" y="710" />
            </Array>
          </mxGeometry>
        </mxCell>
        <mxCell id="BqNa_sSbRJecgwbqxOsx-2" value="&lt;font style=&quot;font-size: 18px&quot;&gt;SEEG Signal Clustering&lt;/font&gt;" style="rounded=0;whiteSpace=wrap;html=1;fillColor=#e1d5e7;strokeColor=#9673a6;" parent="1" vertex="1">
          <mxGeometry x="347.5" y="640" width="120" height="60" as="geometry" />
        </mxCell>
      </root>
    </mxGraphModel>
  </diagram>
</mxfile>
